<svg width="313" height="213" viewBox="0 0 313 213" fill="none" xmlns="http://www.w3.org/2000/svg">
<path d="M186.323 16.6223C186.549 16.6223 186.952 16.6304 187.534 16.6466C188.115 16.6627 188.656 16.6788 189.156 16.695C189.979 16.695 190.665 16.6869 191.214 16.6708C191.763 16.6546 192.078 16.6466 192.159 16.6466C192.449 16.6466 192.595 16.7111 192.595 16.8403C192.595 16.9049 192.57 17.0259 192.522 17.2035C192.441 17.4941 192.369 17.6555 192.304 17.6878C192.239 17.7201 192.062 17.7362 191.771 17.7362C191.368 17.7524 191.045 17.7927 190.803 17.8573C190.561 17.9219 190.391 17.9865 190.294 18.051C190.197 18.1156 190.173 18.1883 190.222 18.269C190.222 18.4627 190.351 20.3838 190.609 24.0322C190.867 27.6806 190.996 29.6098 190.996 29.8197L191.045 29.747C191.077 29.6986 191.126 29.6179 191.19 29.5049C191.255 29.3918 191.352 29.2385 191.481 29.0448C191.61 28.851 191.747 28.6089 191.892 28.3183C192.038 28.0277 192.231 27.6968 192.474 27.3255C192.716 26.9542 192.958 26.5183 193.2 26.0179C193.442 25.5174 193.757 24.9766 194.144 24.3954C195.823 21.425 196.776 19.73 197.002 19.3102C197.228 18.8905 197.349 18.6322 197.365 18.5353C197.365 18.2932 197.212 18.0995 196.905 17.9542C196.598 17.8089 196.259 17.7362 195.888 17.7362C195.662 17.7362 195.549 17.6555 195.549 17.4941C195.549 17.4457 195.565 17.3407 195.597 17.1793C195.662 16.921 195.71 16.7676 195.743 16.7192C195.775 16.6708 195.888 16.6466 196.082 16.6466C196.13 16.6466 196.267 16.6466 196.493 16.6466C196.719 16.6466 197.034 16.6466 197.438 16.6466C197.841 16.6466 198.277 16.6546 198.745 16.6708C199.811 16.6708 200.497 16.6546 200.804 16.6223C201.03 16.6223 201.143 16.7111 201.143 16.8887C201.143 16.9856 201.118 17.1228 201.07 17.3004C201.022 17.4779 200.965 17.599 200.9 17.6636C200.836 17.7282 200.755 17.7524 200.658 17.7362C200.303 17.7362 199.98 17.7847 199.69 17.8815C199.399 17.9784 199.157 18.0914 198.963 18.2205C198.77 18.3497 198.616 18.4869 198.503 18.6322C198.39 18.7775 198.293 18.9066 198.213 19.0197L198.116 19.1649L194.023 26.3327C191.311 31.1111 189.947 33.5084 189.931 33.5246C189.834 33.6376 189.64 33.6941 189.35 33.6941C189.108 33.6941 188.954 33.6537 188.89 33.573C188.841 33.5246 188.688 31.5389 188.43 27.6161C188.171 23.6932 188.034 21.6672 188.018 21.538L187.727 21.9739C187.372 22.5712 186.339 24.3712 184.628 27.3739C182.303 31.4421 181.125 33.4923 181.092 33.5246C181.06 33.5569 181.02 33.5892 180.971 33.6214C180.891 33.6699 180.745 33.6941 180.535 33.6941C180.229 33.6941 180.059 33.6376 180.027 33.5246C180.027 33.4762 179.849 30.9013 179.494 25.7999C179.139 20.6986 178.953 18.1318 178.937 18.0995C178.905 17.9542 178.824 17.8654 178.695 17.8331C178.566 17.8008 178.251 17.7685 177.751 17.7362H177.17C177.057 17.6232 177 17.5345 177 17.4699C177.016 17.0986 177.121 16.8161 177.315 16.6223H177.605C178.283 16.6708 179.091 16.695 180.027 16.695C182.045 16.695 183.151 16.6708 183.344 16.6223H183.587C183.683 16.7192 183.732 16.7919 183.732 16.8403C183.732 16.8887 183.716 17.034 183.683 17.2762C183.603 17.5183 183.53 17.6717 183.465 17.7362H182.957C181.972 17.7847 181.448 17.9219 181.383 18.1479C181.867 25.5739 182.142 29.4806 182.206 29.8681L187.897 19.843L187.848 18.947C187.8 18.269 187.719 17.9058 187.606 17.8573C187.509 17.7927 187.17 17.7524 186.589 17.7362C186.283 17.7362 186.081 17.7201 185.984 17.6878C185.887 17.6555 185.839 17.5829 185.839 17.4699C185.839 17.4376 185.855 17.3407 185.887 17.1793C185.903 17.1147 185.919 17.0421 185.935 16.9614C185.952 16.8806 185.96 16.8241 185.96 16.7919C185.96 16.7596 185.984 16.7273 186.032 16.695C186.081 16.6627 186.113 16.6466 186.129 16.6466C186.145 16.6466 186.21 16.6385 186.323 16.6223Z" fill="white"/>
<path d="M203.419 27.1076C203.419 25.9937 203.5 24.9363 203.661 23.9354C203.822 22.9345 204.008 22.0708 204.218 21.3444C204.428 20.6179 204.726 19.9076 205.114 19.2134C205.501 18.5192 205.808 17.9784 206.034 17.591C206.26 17.2036 206.599 16.7838 207.051 16.3318C207.503 15.8798 207.77 15.6053 207.85 15.5085C207.931 15.4116 208.133 15.2421 208.456 15H208.77H208.867C209.093 15 209.206 15.0726 209.206 15.2179C209.206 15.2663 209.069 15.4358 208.795 15.7264C208.52 16.017 208.189 16.4448 207.802 17.0098C207.414 17.5749 207.019 18.269 206.615 19.0923C206.212 19.9157 205.873 21.0296 205.598 22.434C205.324 23.8385 205.187 25.3964 205.187 27.1076C205.187 28.8188 205.324 30.3686 205.598 31.7569C205.873 33.1453 206.204 34.2672 206.591 35.1228C206.979 35.9784 207.374 36.6726 207.778 37.2053C208.181 37.7381 208.52 38.1659 208.795 38.4888C209.069 38.8116 209.206 38.9811 209.206 38.9973C209.206 39.1426 209.085 39.2152 208.843 39.2152H208.77H208.456L207.778 38.634C206.26 37.2618 205.154 35.5506 204.46 33.5004C203.766 31.4502 203.419 29.3192 203.419 27.1076Z" fill="white"/>
<path d="M213.42 37.0844C213.452 37.0844 213.5 37.1005 213.565 37.1328C213.63 37.1651 213.718 37.1893 213.831 37.2054C213.944 37.2216 214.041 37.2296 214.122 37.2296C214.332 37.2296 214.526 37.1247 214.703 36.9148C214.881 36.705 215.01 36.4709 215.091 36.2126C215.252 35.7767 215.526 34.5418 215.914 32.5077C216.301 30.4736 216.673 28.5364 217.028 26.696C217.383 24.8557 217.561 23.9274 217.561 23.9113V23.8386H216.422C215.664 23.8386 215.26 23.8225 215.212 23.7902C215.147 23.7418 215.115 23.661 215.115 23.548L215.284 22.87C215.317 22.7893 215.381 22.7489 215.478 22.7489C215.575 22.7489 215.954 22.7409 216.616 22.7247C217.391 22.7247 217.778 22.7166 217.778 22.7005C217.778 22.6682 217.851 22.2646 217.996 21.4897C218.142 20.7148 218.239 20.2467 218.287 20.0853C218.884 17.4216 220.063 16.0897 221.822 16.0897C222.42 16.122 222.912 16.2996 223.3 16.6225C223.687 16.9453 223.881 17.3731 223.881 17.9059C223.881 18.487 223.711 18.9068 223.372 19.1651C223.033 19.4234 222.694 19.5606 222.355 19.5767C221.645 19.5767 221.29 19.2377 221.29 18.5597C221.29 18.253 221.378 17.9866 221.556 17.7606C221.734 17.5346 221.927 17.3651 222.137 17.2521L222.355 17.131C222.097 17.0341 221.855 16.9857 221.629 16.9857C221.435 16.9857 221.249 17.0664 221.072 17.2279C220.894 17.3893 220.773 17.6153 220.708 17.9059C220.595 18.374 220.466 19.0036 220.321 19.7947C220.176 20.5857 220.047 21.2557 219.934 21.8045C219.821 22.3534 219.764 22.644 219.764 22.6763C219.764 22.7086 220.208 22.7247 221.096 22.7247C221.822 22.7247 222.242 22.7328 222.355 22.7489C222.468 22.7651 222.557 22.8135 222.622 22.8942C222.638 22.9588 222.622 23.096 222.573 23.3059C222.525 23.5157 222.484 23.6449 222.452 23.6933C222.42 23.774 222.347 23.8144 222.234 23.8144C222.121 23.8144 221.685 23.8225 220.926 23.8386H219.57L219.013 26.7929C218.239 30.7965 217.698 33.2987 217.391 34.2996C216.955 35.6718 216.39 36.6888 215.696 37.3507C215.099 37.8673 214.509 38.1256 213.928 38.1256C213.412 38.1256 212.943 37.9722 212.524 37.6655C212.104 37.3588 211.894 36.9229 211.894 36.3579C211.894 35.7606 212.064 35.3247 212.403 35.0503C212.742 34.7758 213.081 34.6386 213.42 34.6386C214.13 34.6386 214.485 34.9776 214.485 35.6557C214.485 35.9624 214.396 36.2287 214.219 36.4548C214.041 36.6808 213.848 36.8503 213.638 36.9633L213.42 37.0844Z" fill="white"/>
<path d="M225.334 15.0242L225.431 15C225.511 15 225.592 15 225.673 15H225.963L226.641 15.5811C228.159 16.9533 229.265 18.6645 229.959 20.7148C230.653 22.765 231 24.8959 231 27.1076C231 28.2053 230.919 29.2627 230.758 30.2798C230.596 31.2968 230.411 32.1605 230.201 32.8708C229.991 33.5811 229.692 34.2914 229.305 35.0018C228.918 35.7121 228.611 36.2529 228.385 36.6242C228.159 36.9955 227.828 37.4071 227.392 37.8592C226.956 38.3112 226.698 38.5775 226.617 38.6583C226.536 38.739 226.351 38.8923 226.06 39.1183C226.012 39.1668 225.979 39.1991 225.963 39.2152H225.673C225.544 39.2152 225.455 39.2152 225.406 39.2152C225.358 39.2152 225.318 39.191 225.285 39.1426C225.253 39.0941 225.229 39.0215 225.213 38.9246C225.229 38.9085 225.318 38.8036 225.479 38.6098C227.981 36.0107 229.232 32.1766 229.232 27.1076C229.232 22.0385 227.981 18.2045 225.479 15.6053C225.318 15.4116 225.229 15.3067 225.213 15.2905C225.213 15.1614 225.253 15.0726 225.334 15.0242Z" fill="white"/>
<path d="M170.657 105.161C170.325 105.161 170.159 105 170.159 104.677V104.516L170.349 104.105C171.083 102.56 171.616 101.226 171.948 100.101L172.065 99.7494H171.596C171.224 99.7494 170.96 99.764 170.804 99.7934C170.648 99.8227 170.457 99.9156 170.232 100.072C170.124 100.14 170.017 100.228 169.909 100.336C169.802 100.444 169.709 100.546 169.631 100.644C169.552 100.742 169.508 100.8 169.499 100.82C169.479 100.83 169.406 100.835 169.279 100.835C169.093 100.835 169 100.786 169 100.688C169 100.629 169.093 100.458 169.279 100.175C169.464 99.8912 169.733 99.588 170.085 99.2654C170.437 98.9427 170.784 98.7569 171.127 98.708C171.195 98.6885 172.295 98.6787 174.427 98.6787C175.991 98.6787 176.793 98.6836 176.832 98.6934C177.028 98.7618 177.125 98.8987 177.125 99.104C177.125 99.4072 176.969 99.6125 176.656 99.72C176.597 99.7396 176.26 99.7494 175.644 99.7494H174.705L174.661 99.9987C174.544 100.703 174.485 101.284 174.485 101.744C174.485 102.252 174.529 102.707 174.617 103.108C174.705 103.509 174.798 103.822 174.896 104.047C174.994 104.272 175.043 104.408 175.043 104.457C175.043 104.624 174.974 104.78 174.837 104.927C174.7 105.073 174.524 105.147 174.309 105.147C174.202 105.147 174.114 105.132 174.045 105.103C173.977 105.073 173.899 104.956 173.811 104.751C173.723 104.545 173.644 104.252 173.576 103.871C173.566 103.783 173.561 103.568 173.561 103.225C173.561 102.746 173.605 102.233 173.693 101.685C173.781 101.138 173.869 100.688 173.957 100.336C174.045 99.984 174.094 99.7885 174.104 99.7494H172.667L172.652 99.808C172.652 99.8374 172.559 100.224 172.373 100.967C172.188 101.71 171.977 102.497 171.743 103.328C171.508 104.159 171.356 104.633 171.288 104.751C171.18 105.024 170.97 105.161 170.657 105.161Z" fill="white"/>
<path d="M183.285 94.0001C183.373 94.0001 183.447 94.0294 183.505 94.0881C183.564 94.1467 183.593 94.2152 183.593 94.2934C183.593 94.3423 182.748 96.6987 181.056 101.363C179.364 106.027 178.489 108.413 178.431 108.52C178.362 108.618 178.279 108.667 178.181 108.667C178.113 108.667 178.049 108.642 177.991 108.593C177.932 108.545 177.903 108.476 177.903 108.388C177.903 108.29 178.753 105.905 180.455 101.231C182.156 96.557 183.021 94.1956 183.051 94.1467C183.09 94.049 183.168 94.0001 183.285 94.0001Z" fill="white"/>
<path d="M186.013 98.708C185.749 98.708 185.539 98.62 185.383 98.444C185.226 98.268 185.148 98.0529 185.148 97.7987C185.148 97.1044 185.407 96.5031 185.925 95.9947C186.444 95.4862 187.089 95.232 187.861 95.232C188.751 95.232 189.494 95.5058 190.091 96.0533C190.687 96.6009 190.99 97.3098 191 98.18C191 98.6004 190.902 99.0013 190.707 99.3827C190.511 99.764 190.276 100.096 190.003 100.38C189.729 100.664 189.338 101.025 188.829 101.465C188.477 101.768 187.988 102.218 187.363 102.815L186.497 103.636L187.612 103.651C189.147 103.651 189.964 103.626 190.061 103.577C190.13 103.558 190.247 103.123 190.413 102.272V102.228H191V102.272C190.99 102.301 190.927 102.746 190.809 103.607C190.692 104.467 190.619 104.917 190.589 104.956V105H185.148V104.721V104.545C185.148 104.477 185.177 104.404 185.236 104.325C185.295 104.247 185.441 104.076 185.676 103.812C185.96 103.499 186.204 103.225 186.409 102.991C186.497 102.893 186.664 102.712 186.908 102.448C187.152 102.184 187.319 102.003 187.407 101.905C187.495 101.808 187.636 101.646 187.832 101.421C188.028 101.196 188.164 101.03 188.243 100.923C188.321 100.815 188.433 100.668 188.58 100.483C188.727 100.297 188.829 100.14 188.888 100.013C188.947 99.8862 189.02 99.7444 189.108 99.588C189.196 99.4316 189.26 99.2751 189.299 99.1187C189.338 98.9622 189.372 98.8156 189.401 98.6787C189.431 98.5418 189.445 98.3804 189.445 98.1947C189.445 97.5787 189.279 97.0458 188.947 96.596C188.614 96.1462 188.14 95.9213 187.524 95.9213C187.201 95.9213 186.918 96.0044 186.673 96.1707C186.429 96.3369 186.258 96.4982 186.16 96.6547C186.062 96.8111 186.013 96.904 186.013 96.9333C186.013 96.9431 186.038 96.948 186.087 96.948C186.263 96.948 186.444 97.0164 186.629 97.1533C186.815 97.2902 186.908 97.5151 186.908 97.828C186.908 98.0724 186.83 98.2778 186.673 98.444C186.517 98.6102 186.297 98.6982 186.013 98.708Z" fill="white"/>
<path d="M155.347 8.64645C155.152 8.45118 154.835 8.45118 154.64 8.64645L151.458 11.8284C151.263 12.0237 151.263 12.3403 151.458 12.5355C151.653 12.7308 151.97 12.7308 152.165 12.5355L154.994 9.70711L157.822 12.5355C158.017 12.7308 158.334 12.7308 158.529 12.5355C158.724 12.3403 158.724 12.0237 158.529 11.8284L155.347 8.64645ZM155.494 212.303L155.494 9L154.494 9L154.494 212.303L155.494 212.303Z" fill="white"/>
<path d="M312.354 150.257C312.549 150.061 312.549 149.745 312.354 149.55L309.172 146.368C308.976 146.172 308.66 146.172 308.464 146.368C308.269 146.563 308.269 146.879 308.464 147.075L311.293 149.903L308.464 152.732C308.269 152.927 308.269 153.243 308.464 153.439C308.66 153.634 308.976 153.634 309.172 153.439L312.354 150.257ZM0 150.403H312V149.403H0L0 150.403Z" fill="white"/>
<path d="M296.273 173.515C296.3 173.515 296.34 173.529 296.394 173.556C296.448 173.582 296.522 173.603 296.616 173.616C296.71 173.63 296.791 173.636 296.859 173.636C297.034 173.636 297.195 173.549 297.343 173.374C297.492 173.199 297.599 173.003 297.667 172.788C297.801 172.424 298.03 171.394 298.354 169.697C298.677 168 298.987 166.384 299.283 164.848C299.579 163.313 299.727 162.539 299.727 162.525V162.465H298.778C298.145 162.465 297.808 162.451 297.768 162.424C297.714 162.384 297.687 162.316 297.687 162.222L297.828 161.657C297.855 161.589 297.909 161.556 297.99 161.556C298.071 161.556 298.387 161.549 298.939 161.535C299.586 161.535 299.909 161.529 299.909 161.515C299.909 161.488 299.97 161.151 300.091 160.505C300.212 159.859 300.293 159.468 300.333 159.333C300.832 157.111 301.815 156 303.283 156C303.781 156.027 304.192 156.175 304.515 156.444C304.838 156.714 305 157.071 305 157.515C305 158 304.859 158.35 304.576 158.566C304.293 158.781 304.01 158.896 303.727 158.909C303.135 158.909 302.838 158.626 302.838 158.061C302.838 157.805 302.912 157.582 303.061 157.394C303.209 157.205 303.37 157.064 303.545 156.97L303.727 156.869C303.512 156.788 303.31 156.747 303.121 156.747C302.96 156.747 302.805 156.815 302.657 156.949C302.508 157.084 302.407 157.273 302.354 157.515C302.259 157.906 302.152 158.431 302.03 159.091C301.909 159.751 301.801 160.31 301.707 160.768C301.613 161.226 301.566 161.468 301.566 161.495C301.566 161.522 301.936 161.535 302.677 161.535C303.283 161.535 303.633 161.542 303.727 161.556C303.822 161.569 303.896 161.609 303.949 161.677C303.963 161.731 303.949 161.845 303.909 162.02C303.869 162.195 303.835 162.303 303.808 162.343C303.781 162.411 303.721 162.444 303.626 162.444C303.532 162.444 303.168 162.451 302.535 162.465H301.404L300.939 164.929C300.293 168.269 299.842 170.357 299.586 171.192C299.222 172.337 298.751 173.185 298.172 173.737C297.673 174.168 297.182 174.384 296.697 174.384C296.266 174.384 295.875 174.256 295.525 174C295.175 173.744 295 173.38 295 172.909C295 172.411 295.141 172.047 295.424 171.818C295.707 171.589 295.99 171.475 296.273 171.475C296.865 171.475 297.162 171.758 297.162 172.323C297.162 172.579 297.088 172.801 296.939 172.99C296.791 173.178 296.63 173.32 296.455 173.414L296.273 173.515Z" fill="white"/>
<path d="M84.6667 101C84.6667 103.946 87.0545 106.333 90 106.333C92.9455 106.333 95.3333 103.946 95.3333 101C95.3333 98.0545 92.9455 95.6667 90 95.6667C87.0545 95.6667 84.6667 98.0545 84.6667 101ZM89 150C89 150.552 89.4477 151 90 151C90.5523 151 91 150.552 91 150L89 150ZM89 101L89 109.167L91 109.167L91 101L89 101ZM89 109.167L89 150L91 150L91 109.167L89 109.167Z" fill="white"/>
<path d="M229.333 199C229.333 196.054 226.946 193.667 224 193.667C221.054 193.667 218.667 196.054 218.667 199C218.667 201.946 221.054 204.333 224 204.333C226.946 204.333 229.333 201.946 229.333 199ZM225 150C225 149.448 224.552 149 224 149C223.448 149 223 149.448 223 150H225ZM225 199V190.833H223V199H225ZM225 190.833V150H223V190.833H225Z" fill="white"/>
<path d="M150 101H161" stroke="white"/>
<path d="M107 198.418C107 198.418 107 198.356 107 198.23C107 198.105 107.067 198.009 107.202 197.941H115.604C115.748 198.018 115.821 198.115 115.821 198.23C115.821 198.346 115.748 198.442 115.604 198.52H107.202C107.067 198.452 107 198.356 107 198.23V198.418Z" fill="white"/>
<path d="M118.944 202.004C118.616 202.004 118.452 201.845 118.452 201.527V201.368L118.64 200.963C119.363 199.44 119.889 198.124 120.216 197.015L120.332 196.668H119.869C119.503 196.668 119.243 196.683 119.089 196.712C118.934 196.741 118.746 196.832 118.525 196.987C118.419 197.054 118.312 197.141 118.206 197.247C118.1 197.353 118.009 197.454 117.932 197.55C117.855 197.647 117.811 197.705 117.802 197.724C117.782 197.734 117.71 197.738 117.585 197.738C117.402 197.738 117.31 197.69 117.31 197.594C117.31 197.536 117.402 197.367 117.585 197.088C117.768 196.808 118.033 196.509 118.38 196.191C118.727 195.873 119.069 195.69 119.407 195.642C119.474 195.622 120.559 195.613 122.66 195.613C124.203 195.613 124.993 195.618 125.032 195.627C125.224 195.695 125.321 195.83 125.321 196.032C125.321 196.331 125.167 196.533 124.858 196.639C124.8 196.659 124.468 196.668 123.86 196.668H122.935L122.892 196.914C122.776 197.608 122.718 198.182 122.718 198.635C122.718 199.136 122.761 199.585 122.848 199.98C122.935 200.375 123.026 200.683 123.123 200.905C123.219 201.127 123.267 201.262 123.267 201.31C123.267 201.474 123.2 201.628 123.065 201.773C122.93 201.917 122.757 201.99 122.544 201.99C122.438 201.99 122.352 201.975 122.284 201.946C122.217 201.917 122.14 201.802 122.053 201.599C121.966 201.397 121.889 201.108 121.821 200.732C121.812 200.645 121.807 200.433 121.807 200.095C121.807 199.623 121.85 199.117 121.937 198.577C122.024 198.037 122.111 197.594 122.197 197.247C122.284 196.9 122.332 196.707 122.342 196.668H120.925L120.91 196.726C120.91 196.755 120.819 197.136 120.636 197.869C120.453 198.601 120.245 199.377 120.014 200.197C119.783 201.016 119.633 201.484 119.566 201.599C119.46 201.869 119.252 202.004 118.944 202.004Z" fill="white"/>
<path d="M131.394 191C131.481 191 131.553 191.029 131.611 191.087C131.669 191.145 131.698 191.212 131.698 191.289C131.698 191.337 130.864 193.661 129.196 198.259C127.528 202.857 126.666 205.209 126.608 205.315C126.54 205.412 126.458 205.46 126.362 205.46C126.294 205.46 126.232 205.436 126.174 205.388C126.116 205.339 126.087 205.272 126.087 205.185C126.087 205.089 126.926 202.737 128.603 198.129C130.281 193.521 131.134 191.193 131.163 191.145C131.201 191.048 131.278 191 131.394 191Z" fill="white"/>
<path d="M134.084 195.642C133.823 195.642 133.616 195.555 133.462 195.382C133.308 195.208 133.23 194.996 133.23 194.745C133.23 194.061 133.486 193.468 133.997 192.967C134.508 192.465 135.144 192.215 135.906 192.215C136.783 192.215 137.515 192.485 138.103 193.025C138.692 193.564 138.99 194.263 139 195.121C139 195.536 138.904 195.931 138.711 196.307C138.518 196.683 138.287 197.011 138.017 197.29C137.747 197.57 137.361 197.927 136.86 198.36C136.513 198.659 136.031 199.103 135.414 199.691L134.561 200.5L135.66 200.515C137.173 200.515 137.978 200.491 138.075 200.443C138.142 200.423 138.258 199.994 138.422 199.156V199.112H139V199.156C138.99 199.185 138.928 199.623 138.812 200.472C138.696 201.32 138.624 201.763 138.595 201.802V201.845H133.23V201.57V201.397C133.23 201.329 133.259 201.257 133.317 201.18C133.375 201.103 133.52 200.934 133.751 200.674C134.031 200.365 134.272 200.096 134.474 199.864C134.561 199.768 134.725 199.589 134.966 199.329C135.207 199.069 135.371 198.891 135.457 198.794C135.544 198.698 135.684 198.539 135.877 198.317C136.069 198.095 136.204 197.931 136.282 197.825C136.359 197.719 136.47 197.575 136.614 197.392C136.759 197.208 136.86 197.054 136.918 196.929C136.976 196.803 137.048 196.664 137.135 196.509C137.221 196.355 137.284 196.201 137.323 196.047C137.361 195.893 137.395 195.748 137.424 195.613C137.453 195.478 137.467 195.319 137.467 195.136C137.467 194.528 137.303 194.003 136.976 193.56C136.648 193.116 136.18 192.894 135.573 192.894C135.255 192.894 134.975 192.976 134.734 193.14C134.493 193.304 134.325 193.463 134.228 193.617C134.132 193.772 134.084 193.863 134.084 193.892C134.084 193.902 134.108 193.907 134.156 193.907C134.329 193.907 134.508 193.974 134.691 194.109C134.874 194.244 134.966 194.466 134.966 194.774C134.966 195.015 134.889 195.218 134.734 195.382C134.58 195.545 134.363 195.632 134.084 195.642Z" fill="white"/>
<path d="M150 198H161" stroke="white"/>
<path d="M184 1L161 43H207" stroke="white"/>
</svg>
