<svg width="730" height="205" viewBox="0 0 730 205" fill="none" xmlns="http://www.w3.org/2000/svg">
<path d="M163.484 17.525C163.617 16.728 164.129 15.8077 165.021 14.7641C165.913 13.7205 167.013 13.1891 168.323 13.1702C168.987 13.1702 169.594 13.3409 170.144 13.6825C170.694 14.0241 171.102 14.451 171.368 14.9633C172.165 13.7679 173.123 13.1702 174.243 13.1702C174.945 13.1702 175.552 13.3789 176.065 13.7964C176.577 14.2138 176.843 14.7736 176.861 15.4757C176.861 16.026 176.729 16.4719 176.463 16.8134C176.197 17.155 175.941 17.3637 175.694 17.4396C175.448 17.5155 175.23 17.5535 175.04 17.5535C174.679 17.5535 174.385 17.4491 174.157 17.2404C173.93 17.0316 173.816 16.7565 173.816 16.4149C173.816 15.5421 174.29 14.9444 175.239 14.6218C175.03 14.3751 174.651 14.2518 174.101 14.2518C173.854 14.2518 173.674 14.2707 173.56 14.3087C172.839 14.6123 172.307 15.2385 171.966 16.1872C170.827 20.3808 170.258 22.8286 170.258 23.5307C170.258 24.062 170.41 24.4415 170.713 24.6692C171.017 24.8969 171.349 25.0108 171.71 25.0108C172.412 25.0108 173.104 24.6977 173.787 24.0715C174.471 23.4453 174.935 22.6768 175.182 21.766C175.239 21.5762 175.296 21.4719 175.353 21.4529C175.41 21.4339 175.562 21.4149 175.808 21.396H175.922C176.207 21.396 176.349 21.4719 176.349 21.6237C176.349 21.6427 176.33 21.747 176.292 21.9368C175.989 23.0184 175.4 23.9766 174.528 24.8115C173.655 25.6464 172.639 26.0639 171.482 26.0639C170.154 26.0639 169.148 25.4662 168.465 24.2707C167.687 25.4472 166.795 26.0354 165.789 26.0354H165.619C164.689 26.0354 164.025 25.7888 163.626 25.2954C163.228 24.802 163.019 24.2802 163 23.7299C163 23.1227 163.18 22.6294 163.541 22.2499C163.901 21.8704 164.328 21.6806 164.822 21.6806C165.638 21.6806 166.046 22.0791 166.046 22.876C166.046 23.2556 165.932 23.5876 165.704 23.8723C165.476 24.1569 165.258 24.3466 165.049 24.4415C164.841 24.5364 164.717 24.5838 164.679 24.5838L164.594 24.6123C164.594 24.6313 164.651 24.6692 164.765 24.7261C164.879 24.7831 165.03 24.8495 165.22 24.9254C165.41 25.0013 165.59 25.0297 165.761 25.0108C166.444 25.0108 167.032 24.5838 167.526 23.7299C167.696 23.4263 167.915 22.7812 168.18 21.7945C168.446 20.8077 168.712 19.7831 168.977 18.7205C169.243 17.6578 169.395 17.0316 169.433 16.8419C169.528 16.3296 169.575 15.9595 169.575 15.7318C169.575 15.2005 169.433 14.821 169.148 14.5933C168.863 14.3656 168.541 14.2518 168.18 14.2518C167.421 14.2518 166.71 14.5554 166.046 15.1626C165.381 15.7698 164.917 16.5478 164.651 17.4965C164.613 17.6673 164.565 17.7622 164.509 17.7812C164.452 17.8001 164.3 17.8191 164.053 17.8381H163.655C163.541 17.7242 163.484 17.6199 163.484 17.525Z" fill="white"/>
<path d="M180.96 18.6351C180.96 17.3258 181.055 16.0829 181.245 14.9064C181.435 13.73 181.653 12.7148 181.899 11.8609C182.146 11.007 182.497 10.1721 182.953 9.35614C183.408 8.5402 183.768 7.90453 184.034 7.44912C184.3 6.99371 184.698 6.50036 185.23 5.96905C185.761 5.43774 186.074 5.11516 186.169 5.00131C186.264 4.88745 186.501 4.68821 186.88 4.40358H187.25H187.364C187.63 4.40358 187.763 4.48897 187.763 4.65975C187.763 4.71668 187.602 4.91592 187.279 5.25747C186.956 5.59903 186.567 6.10187 186.112 6.76601C185.657 7.43015 185.192 8.24609 184.717 9.21383C184.243 10.1816 183.844 11.4909 183.522 13.1417C183.199 14.7926 183.038 16.6237 183.038 18.6351C183.038 20.6465 183.199 22.4681 183.522 24.1C183.844 25.7319 184.233 27.0506 184.689 28.0563C185.144 29.062 185.609 29.878 186.083 30.5041C186.558 31.1303 186.956 31.6332 187.279 32.0127C187.602 32.3922 187.763 32.5914 187.763 32.6104C187.763 32.7812 187.62 32.8666 187.336 32.8666H187.25H186.88L186.083 32.1835C184.3 30.5706 183 28.5592 182.184 26.1493C181.368 23.7394 180.96 21.2347 180.96 18.6351Z" fill="white"/>
<path d="M190.097 14.7926C189.964 14.6597 189.898 14.5649 189.898 14.5079C189.898 14.432 189.926 14.2802 189.983 14.0525C190.04 13.8248 190.087 13.692 190.125 13.654C190.163 13.5592 190.249 13.5117 190.381 13.5117C190.514 13.5117 190.998 13.5022 191.833 13.4833H193.342L193.882 11.2062C193.939 10.9975 194.006 10.7223 194.082 10.3808C194.158 10.0392 194.224 9.79256 194.281 9.64075C194.338 9.48895 194.395 9.2992 194.452 9.07149C194.509 8.84379 194.584 8.6825 194.679 8.58762C194.774 8.49275 194.869 8.37889 194.964 8.24607C195.059 8.11324 195.192 8.02785 195.362 7.9899C195.533 7.95195 195.704 7.93297 195.875 7.93297C196.216 7.95195 196.454 8.05631 196.586 8.24607C196.719 8.43582 196.786 8.61609 196.786 8.78686C196.786 8.91969 196.7 9.36561 196.529 10.1246C196.359 10.8836 196.169 11.6332 195.96 12.3732L195.676 13.4263C195.676 13.4643 196.15 13.4833 197.099 13.4833H198.55C198.683 13.6161 198.75 13.7205 198.75 13.7964C198.75 14.2138 198.626 14.5459 198.38 14.7926H195.334L194.309 18.9197C193.569 21.9557 193.199 23.5876 193.199 23.8153C193.199 24.6123 193.455 25.0108 193.968 25.0108C194.632 25.0108 195.277 24.6882 195.903 24.043C196.529 23.3979 197.032 22.6009 197.412 21.6521C197.45 21.5383 197.497 21.4719 197.554 21.4529C197.611 21.4339 197.753 21.4149 197.981 21.396H198.095C198.38 21.396 198.522 21.4719 198.522 21.6237C198.522 21.6806 198.493 21.7945 198.436 21.9652C198.342 22.2688 198.171 22.6294 197.924 23.0468C197.677 23.4643 197.355 23.9102 196.956 24.3846C196.558 24.859 196.074 25.2575 195.505 25.58C194.936 25.9026 194.357 26.0639 193.769 26.0639C193.199 26.0639 192.658 25.9216 192.146 25.637C191.634 25.3523 191.264 24.859 191.036 24.1569C190.998 24.0051 190.979 23.7489 190.979 23.3884V22.876L191.975 18.8912C192.64 16.2157 192.981 14.8685 193 14.8495C193 14.8115 192.516 14.7926 191.548 14.7926H190.097Z" fill="white"/>
<path d="M201.34 4.43205L201.453 4.40358C201.548 4.40358 201.643 4.40358 201.738 4.40358H202.08L202.877 5.08669C204.66 6.6996 205.96 8.71098 206.776 11.1208C207.592 13.5307 208 16.0355 208 18.6351C208 19.9254 207.905 21.1683 207.715 22.3637C207.526 23.5592 207.307 24.5744 207.061 25.4093C206.814 26.2442 206.463 27.0791 206.008 27.914C205.552 28.7489 205.192 29.3846 204.926 29.821C204.66 30.2575 204.271 30.7413 203.759 31.2726C203.247 31.804 202.943 32.1171 202.848 32.2119C202.753 32.3068 202.535 32.4871 202.194 32.7527C202.137 32.8097 202.099 32.8476 202.08 32.8666H201.738C201.586 32.8666 201.482 32.8666 201.425 32.8666C201.368 32.8666 201.321 32.8381 201.283 32.7812C201.245 32.7243 201.216 32.6389 201.197 32.525C201.216 32.506 201.321 32.3827 201.51 32.155C204.452 29.1 205.922 24.5933 205.922 18.6351C205.922 12.6768 204.452 8.17019 201.51 5.11516C201.321 4.88745 201.216 4.76411 201.197 4.74514C201.197 4.59334 201.245 4.48897 201.34 4.43205Z" fill="white"/>
<path d="M617 142C617 114.938 597.077 93 572.5 93C547.923 93 528 114.938 528 142" stroke="white"/>
<path d="M155.347 0.646447C155.152 0.451184 154.835 0.451184 154.64 0.646447L151.458 3.82843C151.263 4.02369 151.263 4.34027 151.458 4.53553C151.653 4.7308 151.97 4.7308 152.165 4.53553L154.994 1.70711L157.822 4.53553C158.017 4.7308 158.334 4.7308 158.529 4.53553C158.724 4.34027 158.724 4.02369 158.529 3.82843L155.347 0.646447ZM155.494 204.303L155.494 1L154.494 1L154.494 204.303L155.494 204.303Z" fill="white"/>
<path d="M312.354 142.257C312.549 142.061 312.549 141.745 312.354 141.55L309.172 138.368C308.976 138.172 308.66 138.172 308.464 138.368C308.269 138.563 308.269 138.88 308.464 139.075L311.293 141.903L308.464 144.732C308.269 144.927 308.269 145.243 308.464 145.439C308.66 145.634 308.976 145.634 309.172 145.439L312.354 142.257ZM0 142.403H312V141.403H0L0 142.403Z" fill="white"/>
<path d="M293.203 154.974C293.068 154.839 293 154.743 293 154.685C293 154.608 293.029 154.453 293.087 154.222C293.145 153.99 293.193 153.855 293.232 153.817C293.27 153.72 293.357 153.672 293.492 153.672C293.627 153.672 294.119 153.662 294.968 153.643H296.502L297.051 151.328C297.109 151.116 297.177 150.836 297.254 150.489C297.331 150.141 297.399 149.891 297.457 149.736C297.514 149.582 297.572 149.389 297.63 149.158C297.688 148.926 297.765 148.762 297.862 148.666C297.958 148.569 298.055 148.453 298.151 148.318C298.248 148.183 298.383 148.096 298.556 148.058C298.73 148.019 298.904 148 299.077 148C299.424 148.019 299.666 148.125 299.801 148.318C299.936 148.511 300.003 148.695 300.003 148.868C300.003 149.003 299.916 149.457 299.743 150.228C299.569 151 299.376 151.762 299.164 152.514L298.875 153.585C298.875 153.624 299.357 153.643 300.322 153.643H301.797C301.932 153.778 302 153.884 302 153.961C302 154.386 301.875 154.723 301.624 154.974H298.527L297.486 159.17C296.733 162.257 296.357 163.916 296.357 164.148C296.357 164.958 296.617 165.363 297.138 165.363C297.814 165.363 298.469 165.035 299.106 164.379C299.743 163.723 300.254 162.913 300.64 161.949C300.678 161.833 300.727 161.765 300.785 161.746C300.842 161.727 300.987 161.707 301.219 161.688H301.334C301.624 161.688 301.768 161.765 301.768 161.92C301.768 161.977 301.74 162.093 301.682 162.267C301.585 162.576 301.412 162.942 301.161 163.367C300.91 163.791 300.582 164.244 300.177 164.727C299.772 165.209 299.28 165.614 298.701 165.942C298.122 166.27 297.534 166.434 296.936 166.434C296.357 166.434 295.807 166.289 295.286 166C294.765 165.711 294.389 165.209 294.158 164.495C294.119 164.341 294.1 164.08 294.1 163.714V163.193L295.113 159.141C295.788 156.421 296.135 155.051 296.154 155.032C296.154 154.994 295.662 154.974 294.678 154.974H293.203Z" fill="white"/>
<path d="M507 151.537C507 151.537 507 151.442 507 151.251C507 151.06 507.103 150.913 507.308 150.81H520.105C520.325 150.928 520.436 151.075 520.436 151.251C520.436 151.427 520.325 151.574 520.105 151.691H507.308C507.103 151.589 507 151.442 507 151.251V151.537Z" fill="white"/>
<path d="M533.188 148.3C533.188 147.976 533.328 147.683 533.607 147.419C533.886 147.154 534.187 147.015 534.51 147C534.789 147 535.038 147.132 535.259 147.396C535.479 147.661 535.589 148.109 535.589 148.74C535.589 149.181 535.501 149.812 535.325 150.634C535.149 151.457 534.877 152.36 534.51 153.343C534.143 154.327 533.614 155.186 532.924 155.92C532.234 156.655 531.456 157.014 530.589 157C529.415 157 528.607 156.434 528.166 155.304C528.152 155.274 528.1 155.311 528.012 155.414C527.146 156.471 526.155 157 525.039 157C523.424 157 522.616 155.898 522.616 153.696C522.616 152.36 522.917 150.994 523.519 149.599C524.121 148.204 524.613 147.404 524.995 147.198C525.171 147.095 525.347 147.081 525.523 147.154C525.714 147.257 525.81 147.389 525.81 147.551C525.81 147.727 525.663 148.013 525.369 148.41C525.076 148.806 524.738 149.342 524.356 150.018C523.974 150.693 523.739 151.412 523.651 152.176C523.637 152.264 523.629 152.418 523.629 152.639C523.629 153.564 523.805 154.202 524.158 154.555C524.51 154.907 524.936 155.083 525.435 155.083C526.287 155.083 527.036 154.694 527.682 153.916L527.858 153.74V153.321C527.932 151.251 528.401 150.216 529.268 150.216C529.723 150.216 529.951 150.48 529.951 151.009C529.951 151.273 529.877 151.625 529.73 152.066C529.583 152.506 529.437 152.91 529.29 153.277L529.069 153.784C529.084 153.813 529.099 153.857 529.114 153.916C529.128 153.975 529.187 154.078 529.29 154.224C529.393 154.371 529.51 154.503 529.642 154.621C529.774 154.738 529.951 154.841 530.171 154.929C530.391 155.017 530.648 155.069 530.942 155.083C531.867 155.083 532.66 154.555 533.32 153.498C533.981 152.44 534.312 151.515 534.312 150.722C534.312 150.267 534.216 149.893 534.025 149.599C533.834 149.305 533.651 149.07 533.475 148.894C533.298 148.718 533.203 148.52 533.188 148.3Z" fill="white"/>
<path d="M619.903 149.217C619.903 148.915 620.034 148.64 620.295 148.392C620.557 148.144 620.839 148.014 621.141 148C621.403 148 621.636 148.124 621.843 148.371C622.049 148.619 622.152 149.038 622.152 149.63C622.152 150.043 622.07 150.634 621.905 151.404C621.74 152.175 621.485 153.02 621.141 153.942C620.797 154.864 620.302 155.668 619.656 156.356C619.009 157.044 618.28 157.381 617.469 157.367C616.368 157.367 615.612 156.837 615.199 155.778C615.186 155.751 615.137 155.785 615.055 155.881C614.243 156.872 613.315 157.367 612.27 157.367C610.757 157.367 610 156.335 610 154.272C610 153.02 610.282 151.741 610.846 150.435C611.41 149.128 611.871 148.378 612.228 148.186C612.393 148.089 612.558 148.076 612.723 148.144C612.902 148.241 612.992 148.364 612.992 148.516C612.992 148.681 612.854 148.949 612.579 149.32C612.304 149.692 611.988 150.194 611.63 150.827C611.272 151.459 611.052 152.133 610.97 152.849C610.956 152.931 610.949 153.075 610.949 153.282C610.949 154.148 611.114 154.747 611.444 155.077C611.774 155.407 612.173 155.572 612.641 155.572C613.439 155.572 614.14 155.207 614.745 154.478L614.91 154.313V153.921C614.979 151.982 615.419 151.012 616.231 151.012C616.657 151.012 616.87 151.26 616.87 151.755C616.87 152.003 616.802 152.333 616.664 152.745C616.527 153.158 616.389 153.536 616.252 153.88L616.045 154.355C616.059 154.382 616.073 154.423 616.086 154.478C616.1 154.533 616.155 154.63 616.252 154.767C616.348 154.905 616.458 155.029 616.582 155.139C616.705 155.249 616.87 155.345 617.077 155.428C617.283 155.51 617.524 155.558 617.799 155.572C618.665 155.572 619.408 155.077 620.027 154.086C620.646 153.096 620.956 152.23 620.956 151.487C620.956 151.06 620.866 150.71 620.687 150.435C620.509 150.159 620.337 149.939 620.172 149.774C620.007 149.609 619.917 149.424 619.903 149.217Z" fill="white"/>
<path d="M16.1033 129.826C17.9752 125.848 30.1048 101.596 37.7979 110.144C40.2485 112.867 38.2452 125.14 38.2452 128.819C38.2452 136.88 39.8462 144.141 40.2581 151.968C40.683 160.041 47.5007 171.514 54.3484 174.557C64.0315 178.861 68.0095 165.907 70.899 157.559C74.9002 146 92.4994 84.8268 106.237 115.735C109.767 123.679 109.62 178.135 120.774 178.135C123.97 178.135 135.891 143.456 137.325 139.443C142.494 124.97 150.495 107.946 159.019 95.1591C163.367 88.6385 172.044 61.3871 181.161 61.3871C188.592 61.3871 190.633 81.9193 191.226 87.5548C192.03 95.1971 198.458 127.161 209.342 107.684C218.445 91.3946 225.949 73.2342 236.628 57.8086C240.261 52.5609 242.526 51.3226 248.594 51.3226C253.411 51.3226 253.421 59.9913 256.086 62.9527C258.874 66.0502 258.423 71.0936 262.572 73.4645C265 74.8518 268.493 79.0448 269.729 81.5161" stroke="white" stroke-linecap="round"/>
<path d="M578.464 26.1953H578.418C578.232 26.1953 578.093 26.087 578 25.8703V14.586L578.023 3.30179C578.178 3.10057 578.325 2.99995 578.464 2.99995C578.666 2.99995 578.82 3.11605 578.929 3.34823V25.8703C578.805 26.087 578.666 26.1953 578.511 26.1953H578.464Z" fill="white"/>
<path d="M582.667 20.4139H582.62C582.404 20.4139 582.295 20.3287 582.295 20.1585C582.295 20.0966 582.319 19.9727 582.365 19.787C582.427 19.5703 582.481 19.4464 582.528 19.4155C582.574 19.3845 582.721 19.3613 582.969 19.3458C584.3 19.2994 585.345 18.8969 586.103 18.1385C586.258 17.9837 587.156 17.0085 588.797 15.2129C590.437 13.4173 591.25 12.5041 591.235 12.4731C589.547 8.16995 588.665 5.97966 588.588 5.90227C588.448 5.732 587.961 5.63912 587.125 5.62365H586.475C586.382 5.53077 586.335 5.46885 586.335 5.4379C586.335 5.40694 586.351 5.25989 586.382 4.99674C586.444 4.79552 586.521 4.64847 586.614 4.55559H586.939C587.465 4.58655 588.402 4.60203 589.749 4.60203C590.259 4.60203 590.732 4.60203 591.165 4.60203C591.598 4.60203 591.947 4.59429 592.21 4.57881C592.473 4.56333 592.628 4.56333 592.674 4.57881C592.937 4.57881 593.069 4.66394 593.069 4.83421C593.069 4.84969 593.053 4.95031 593.022 5.13606C592.96 5.36824 592.906 5.50755 592.86 5.55399C592.813 5.60043 592.69 5.62365 592.488 5.62365C592.009 5.67008 591.591 5.80165 591.235 6.01836L593.022 10.5228L594.253 9.15287C595.878 7.40374 596.691 6.4363 596.691 6.25055C596.691 5.97192 596.505 5.77844 596.134 5.67008C596.056 5.67008 595.956 5.6546 595.832 5.62365C595.6 5.62365 595.484 5.53851 595.484 5.36824C595.484 5.33728 595.499 5.21345 595.53 4.99674C595.592 4.79552 595.669 4.64847 595.762 4.55559H596.041C596.056 4.55559 596.25 4.55559 596.621 4.55559C596.993 4.55559 597.411 4.57107 597.875 4.60203C598.339 4.63299 598.657 4.64073 598.827 4.62525C600.22 4.62525 600.986 4.60203 601.126 4.55559H601.311C601.42 4.66394 601.474 4.74908 601.474 4.811C601.443 5.19797 601.35 5.46885 601.195 5.62365H600.824C600.298 5.63912 599.825 5.70878 599.408 5.83261C598.99 5.95644 598.672 6.08802 598.456 6.22733C598.239 6.36664 598.053 6.50595 597.898 6.64526L597.643 6.85423C597.643 6.83875 596.908 7.64366 595.437 9.26896L593.417 11.4979C593.417 11.5134 593.657 12.1326 594.137 13.3554C594.617 14.5783 595.12 15.8321 595.646 17.1168C596.172 18.4016 596.459 19.0672 596.505 19.1136C596.66 19.253 597.132 19.3303 597.922 19.3458C598.463 19.3458 598.734 19.4155 598.734 19.5548C598.734 19.5858 598.719 19.6941 598.688 19.8799C598.626 20.1275 598.572 20.2746 598.525 20.321C598.479 20.3674 598.37 20.3907 598.2 20.3907C598.154 20.3907 597.898 20.3907 597.434 20.3907C596.97 20.3907 596.281 20.3829 595.367 20.3674C594.423 20.3674 593.703 20.3674 593.208 20.3674C592.713 20.3674 592.442 20.3752 592.396 20.3907C592.132 20.3907 592.001 20.321 592.001 20.1817C592.001 20.1662 592.016 20.0501 592.047 19.8334C592.078 19.6786 592.109 19.5703 592.14 19.5084C592.171 19.4464 592.21 19.4077 592.256 19.3923C592.303 19.3768 592.372 19.3613 592.465 19.3458C592.558 19.3303 592.682 19.3226 592.837 19.3226C592.991 19.3226 593.193 19.2684 593.44 19.1601C593.703 19.0362 593.835 18.9588 593.835 18.9279C593.82 18.9279 593.456 18.0224 592.744 16.2113L591.653 13.4715C588.742 16.6293 587.249 18.2932 587.171 18.4635C587.109 18.5874 587.078 18.6802 587.078 18.7421C587.078 19.0362 587.303 19.2297 587.752 19.3226C587.767 19.3226 587.814 19.3226 587.891 19.3226C587.968 19.3226 588.015 19.3303 588.03 19.3458C588.077 19.3458 588.108 19.3458 588.123 19.3458C588.139 19.3458 588.162 19.3536 588.193 19.369C588.224 19.3845 588.247 19.4077 588.263 19.4387C588.278 19.4697 588.286 19.5238 588.286 19.6012C588.286 19.7405 588.27 19.8644 588.239 19.9727C588.193 20.174 588.147 20.29 588.1 20.321C588.054 20.352 587.938 20.3752 587.752 20.3907C587.705 20.3907 587.566 20.3907 587.334 20.3907C587.102 20.3907 586.777 20.3829 586.359 20.3674C585.941 20.352 585.484 20.352 584.989 20.3674C583.781 20.3674 583.007 20.3829 582.667 20.4139Z" fill="white"/>
<path d="M603.657 14.6093C603.657 13.5412 603.734 12.5273 603.889 11.5676C604.044 10.6079 604.222 9.77982 604.423 9.08326C604.624 8.3867 604.91 7.70562 605.282 7.04002C605.653 6.37442 605.947 5.85588 606.164 5.48438C606.381 5.11288 606.706 4.71043 607.139 4.27701C607.573 3.8436 607.828 3.58046 607.906 3.48758C607.983 3.39471 608.176 3.23218 608.486 2.99999H608.788H608.881C609.097 2.99999 609.206 3.06965 609.206 3.20896C609.206 3.2554 609.074 3.41793 608.811 3.69655C608.548 3.97517 608.231 4.38537 607.859 4.92713C607.488 5.4689 607.108 6.1345 606.721 6.92393C606.334 7.71336 606.009 8.78142 605.746 10.1281C605.483 11.4748 605.351 12.9685 605.351 14.6093C605.351 16.2501 605.483 17.736 605.746 19.0672C606.009 20.3984 606.327 21.4742 606.698 22.2946C607.07 23.115 607.449 23.7806 607.836 24.2914C608.223 24.8022 608.548 25.2124 608.811 25.522C609.074 25.8316 609.206 25.9941 609.206 26.0096C609.206 26.1489 609.09 26.2186 608.858 26.2186H608.788H608.486L607.836 25.6613C606.381 24.3456 605.321 22.7048 604.655 20.739C603.989 18.7731 603.657 16.7299 603.657 14.6093Z" fill="white"/>
<path d="M613.246 24.1753C613.277 24.1753 613.323 24.1908 613.385 24.2217C613.447 24.2527 613.532 24.2759 613.641 24.2914C613.749 24.3069 613.842 24.3146 613.919 24.3146C614.12 24.3146 614.306 24.214 614.476 24.0128C614.647 23.8115 614.77 23.5871 614.848 23.3394C615.003 22.9215 615.266 21.7374 615.637 19.787C616.009 17.8366 616.365 15.9792 616.705 14.2145C617.046 12.4499 617.216 11.5599 617.216 11.5444V11.4747H616.125C615.397 11.4747 615.01 11.4593 614.964 11.4283C614.902 11.3819 614.871 11.3045 614.871 11.1961L615.034 10.546C615.065 10.4686 615.127 10.4299 615.219 10.4299C615.312 10.4299 615.676 10.4222 616.311 10.4067C617.054 10.4067 617.425 10.399 617.425 10.3835C617.425 10.3525 617.495 9.96554 617.634 9.22254C617.773 8.47955 617.866 8.03066 617.913 7.87587C618.485 5.32182 619.615 4.0448 621.303 4.0448C621.875 4.07576 622.347 4.24603 622.719 4.55561C623.09 4.86519 623.276 5.27539 623.276 5.7862C623.276 6.34344 623.114 6.7459 622.789 6.99356C622.464 7.24123 622.139 7.3728 621.813 7.38828C621.132 7.38828 620.792 7.06322 620.792 6.4131C620.792 6.11899 620.877 5.86359 621.047 5.64688C621.218 5.43018 621.403 5.26765 621.604 5.15929L621.813 5.0432C621.566 4.95033 621.334 4.90389 621.117 4.90389C620.931 4.90389 620.753 4.98128 620.583 5.13608C620.413 5.29087 620.297 5.50757 620.235 5.7862C620.126 6.23509 620.002 6.83877 619.863 7.59724C619.724 8.35572 619.6 8.9981 619.492 9.52439C619.383 10.0507 619.329 10.3293 619.329 10.3603C619.329 10.3912 619.755 10.4067 620.606 10.4067C621.303 10.4067 621.705 10.4144 621.813 10.4299C621.922 10.4454 622.007 10.4918 622.069 10.5692C622.084 10.6311 622.069 10.7627 622.022 10.9639C621.976 11.1652 621.937 11.289 621.906 11.3354C621.875 11.4128 621.806 11.4515 621.697 11.4515C621.589 11.4515 621.171 11.4593 620.444 11.4747H619.143L618.609 14.3074C617.866 18.1462 617.348 20.5455 617.054 21.5052C616.636 22.8209 616.094 23.7961 615.428 24.4307C614.856 24.926 614.291 25.1737 613.733 25.1737C613.238 25.1737 612.789 25.0267 612.387 24.7326C611.984 24.4385 611.783 24.0205 611.783 23.4788C611.783 22.906 611.946 22.4881 612.271 22.2249C612.596 21.9618 612.921 21.8302 613.246 21.8302C613.927 21.8302 614.267 22.1553 614.267 22.8054C614.267 23.0995 614.182 23.3549 614.012 23.5716C613.842 23.7883 613.656 23.9509 613.455 24.0592L613.246 24.1753Z" fill="white"/>
<path d="M624.669 3.02321L624.762 2.99999C624.84 2.99999 624.917 2.99999 624.994 2.99999H625.273L625.923 3.55724C627.378 4.87296 628.438 6.51374 629.104 8.47957C629.77 10.4454 630.102 12.4886 630.102 14.6093C630.102 15.6619 630.025 16.6757 629.87 17.6509C629.716 18.6261 629.538 19.4542 629.336 20.1353C629.135 20.8164 628.849 21.4975 628.477 22.1785C628.106 22.8596 627.812 23.3782 627.595 23.7342C627.378 24.0902 627.061 24.4849 626.643 24.9183C626.225 25.3517 625.977 25.6071 625.9 25.6845C625.823 25.7619 625.645 25.909 625.366 26.1257C625.319 26.1721 625.289 26.2031 625.273 26.2186H624.994C624.871 26.2186 624.785 26.2186 624.739 26.2186C624.693 26.2186 624.654 26.1953 624.623 26.1489C624.592 26.1025 624.569 26.0328 624.553 25.9399C624.569 25.9245 624.654 25.8239 624.809 25.6381C627.208 23.146 628.408 19.4697 628.408 14.6093C628.408 9.74886 627.208 6.07258 624.809 3.58046C624.654 3.39471 624.569 3.29409 624.553 3.27861C624.553 3.15478 624.592 3.06965 624.669 3.02321Z" fill="white"/>
<path d="M635.536 26.1953H635.489C635.303 26.1953 635.164 26.087 635.071 25.8703V14.586L635.094 3.30179C635.249 3.10057 635.396 2.99995 635.536 2.99995C635.737 2.99995 635.892 3.11605 636 3.34823V25.8703C635.876 26.087 635.737 26.1953 635.582 26.1953H635.536Z" fill="white"/>
<path d="M572.347 0.646447C572.152 0.451184 571.835 0.451184 571.64 0.646447L568.458 3.82843C568.263 4.02369 568.263 4.34027 568.458 4.53553C568.653 4.7308 568.97 4.7308 569.165 4.53553L571.994 1.70711L574.822 4.53553C575.017 4.7308 575.334 4.7308 575.529 4.53553C575.724 4.34027 575.724 4.02369 575.529 3.82843L572.347 0.646447ZM572.494 204.303L572.494 1L571.494 1L571.494 204.303L572.494 204.303Z" fill="white"/>
<path d="M729.354 142.257C729.549 142.061 729.549 141.745 729.354 141.55L726.172 138.368C725.976 138.172 725.66 138.172 725.464 138.368C725.269 138.563 725.269 138.88 725.464 139.075L728.293 141.903L725.464 144.732C725.269 144.927 725.269 145.243 725.464 145.439C725.66 145.634 725.976 145.634 726.172 145.439L729.354 142.257ZM417 142.403H729V141.403H417V142.403Z" fill="white"/>
<path d="M713.273 165.515C713.3 165.515 713.34 165.529 713.394 165.556C713.448 165.583 713.522 165.603 713.616 165.616C713.71 165.63 713.791 165.636 713.859 165.636C714.034 165.636 714.195 165.549 714.343 165.374C714.492 165.199 714.599 165.003 714.667 164.788C714.801 164.424 715.03 163.394 715.354 161.697C715.677 160 715.987 158.384 716.283 156.848C716.579 155.313 716.727 154.539 716.727 154.525V154.465H715.778C715.145 154.465 714.808 154.451 714.768 154.424C714.714 154.384 714.687 154.317 714.687 154.222L714.828 153.657C714.855 153.589 714.909 153.556 714.99 153.556C715.071 153.556 715.387 153.549 715.939 153.535C716.586 153.535 716.909 153.529 716.909 153.515C716.909 153.488 716.97 153.152 717.091 152.505C717.212 151.859 717.293 151.468 717.333 151.333C717.832 149.111 718.815 148 720.283 148C720.781 148.027 721.192 148.175 721.515 148.444C721.838 148.714 722 149.071 722 149.515C722 150 721.859 150.35 721.576 150.566C721.293 150.781 721.01 150.896 720.727 150.909C720.135 150.909 719.838 150.626 719.838 150.061C719.838 149.805 719.912 149.583 720.061 149.394C720.209 149.205 720.37 149.064 720.545 148.97L720.727 148.869C720.512 148.788 720.31 148.747 720.121 148.747C719.96 148.747 719.805 148.815 719.657 148.95C719.508 149.084 719.407 149.273 719.354 149.515C719.259 149.906 719.152 150.431 719.03 151.091C718.909 151.751 718.801 152.31 718.707 152.768C718.613 153.226 718.566 153.468 718.566 153.495C718.566 153.522 718.936 153.535 719.677 153.535C720.283 153.535 720.633 153.542 720.727 153.556C720.822 153.569 720.896 153.609 720.949 153.677C720.963 153.731 720.949 153.845 720.909 154.02C720.869 154.195 720.835 154.303 720.808 154.343C720.781 154.411 720.721 154.444 720.626 154.444C720.532 154.444 720.168 154.451 719.535 154.465H718.404L717.939 156.929C717.293 160.269 716.842 162.357 716.586 163.192C716.222 164.337 715.751 165.185 715.172 165.737C714.673 166.168 714.182 166.384 713.697 166.384C713.266 166.384 712.875 166.256 712.525 166C712.175 165.744 712 165.38 712 164.909C712 164.411 712.141 164.047 712.424 163.818C712.707 163.589 712.99 163.475 713.273 163.475C713.865 163.475 714.162 163.758 714.162 164.323C714.162 164.579 714.088 164.801 713.939 164.99C713.791 165.178 713.63 165.32 713.455 165.414L713.273 165.515Z" fill="white"/>
</svg>
